<svg xmlns="http://www.w3.org/2000/svg" width="180" height="220" viewBox="0 0 64 96">
  <!-- ground -->
  <ellipse cx="32" cy="92" rx="16" ry="3.2" fill="#22C55E" opacity="0.35"></ellipse>

  <!-- pole -->
  <rect x="31" y="10" width="2.4" height="74" rx="1.2" fill="#22C55E"></rect>
  <rect x="30.4" y="10" width="0.7" height="74" rx="0.35" fill="#22C55E" opacity="0.55"></rect>

  <!-- arm -->
  <path d="M32 14c12 0 20 5.4 22 10.3" fill="none" stroke="#22C55E" stroke-width="2.6" stroke-linecap="round"></path>
  <path d="M32 14c11.4 0 19.2 5 21.2 9.7" fill="none" stroke="#22C55E" stroke-width="0.9" stroke-linecap="round" opacity="0.55"></path>

  <!-- lamp head -->
  <path d="M54 24c3.3 0 5.8 1.7 6.9 3.9-2.1 1-4.3 1.4-6.9 1.4s-4.8-.4-6.9-1.4c1.1-2.2 3.6-3.9 6.9-3.9z" fill="#22C55E" opacity="0.95"></path>

  <!-- base -->
  <path d="M26 84h12c1 0 1.7.8 1.7 1.7V88H24.3v-.3c0-2.1.8-3.7 1.7-3.7z" fill="#22C55E" opacity="0.95"></path>
  <rect x="27.2" y="82.2" width="9.6" height="2.4" rx="0.7" fill="#22C55E" opacity="0.85"></rect>

  <!-- bolts -->
  <circle cx="30.2" cy="86.2" r="0.55" fill="#22C55E" opacity="0.65"></circle>
  <circle cx="33.8" cy="86.2" r="0.55" fill="#22C55E" opacity="0.65"></circle>
</svg>